<svg width="45" height="60" viewBox="0 0 45 60" fill="none" xmlns="http://www.w3.org/2000/svg">
<path fill-rule="evenodd" clip-rule="evenodd" d="M29.9548 59.126C29.9018 59.1499 29.8476 59.171 29.7924 59.1894L29.7528 59.1999C29.6045 59.2462 29.4501 59.2697 29.2948 59.2698C29.0514 59.2753 28.81 59.2239 28.59 59.1197C28.37 59.0155 28.1774 58.8613 28.0276 58.6695C27.9547 58.5805 27.8914 58.4841 27.8388 58.3819L17.329 40.1872V46.2684C17.329 46.7829 17.0848 47.2645 16.6782 47.5693L16.5172 47.6749L2.43804 55.7998C2.19085 55.9421 1.91055 56.017 1.62527 56.0168C1.33999 56.0166 1.05978 55.9415 0.812757 55.7988C0.565736 55.6562 0.3606 55.4511 0.217941 55.2042C0.0752819 54.9572 0.0001204 54.6771 0 54.392V9.74843C0 9.07949 0.356399 8.58471 0.838199 8.32479L14.8922 0.217016C15.2651 0.00247605 15.7078 -0.0556396 16.1235 0.0553945C16.5391 0.166429 16.8938 0.437564 17.1098 0.809431L27.6632 19.0081V9.74843C27.6632 9.23386 27.9088 8.75228 28.3166 8.4475L28.4764 8.34194L42.5555 0.217016C42.8027 0.074673 43.083 -0.000169991 43.3683 2.89917e-07C43.6535 0.000170571 43.9337 0.0753481 44.1808 0.217987C44.4278 0.360625 44.6329 0.565705 44.7756 0.812641C44.9182 1.05958 44.9934 1.33968 44.9935 1.62483V49.5181C44.9935 50.0986 44.6833 50.6343 44.1804 50.9246L30.1844 59.0033C30.1145 59.0483 30.0412 59.088 29.9653 59.1221V59.1207L29.9548 59.126ZM41.7424 4.43913L30.9144 10.6879V54.8274L41.7424 48.5787V4.43913V4.43913ZM15.11 3.84144L3.84516 10.3422L27.6632 51.5777V25.4903L15.1114 3.84144H15.11ZM3.24984 15.8138V51.5777L14.0778 45.329V34.5586L12.1585 31.2363L3.24984 15.8151V15.8138Z" fill="#040062"/>
</svg>
